<?xml version="1.0" encoding="utf-8"?>
<!-- Generator: Adobe Illustrator 25.4.1, SVG Export Plug-In . SVG Version: 6.00 Build 0)  -->
<svg version="1.1" id="Capa_1" xmlns="http://www.w3.org/2000/svg" xmlns:xlink="http://www.w3.org/1999/xlink" x="0px" y="0px"
	 viewBox="0 0 1335.1 337.3" style="enable-background:new 0 0 1335.1 337.3;" xml:space="preserve">
<style type="text/css">
	.st0{fill:#FFFFFF;}
</style>
<g>
	<path class="st0" d="M395.6,154.5c-4.7-3.9-11-5.8-18.9-5.8c-5.3-0.1-10.8,0.7-15.9,2.3c-4.2,1.4-8.2,3-12,5.1v93.1
		c-1.6,0.6-3.2,1-4.9,1.4c-2.3,0.4-4.6,0.6-7,0.6c-4.9,0-8.6-0.9-10.9-2.8c-2.4-1.9-3.6-5-3.6-9.4v-83.7c-0.2-3.3,0.6-6.6,2.3-9.4
		c2-2.8,4.6-5.2,7.6-7.1c5.8-3.3,12-6,18.5-7.8c8.4-2.5,17.1-3.7,25.9-3.6c16.4,0,29.2,3.7,38.5,11.1c9.3,7.3,14,18.5,13.9,33.4
		v77.4c-1.7,0.6-3.3,1.1-5.1,1.4c-2.3,0.4-4.7,0.6-7.1,0.6c-4.9,0-8.6-0.9-10.9-2.8c-2.4-1.9-3.6-5-3.6-9.4v-66.2
		C402.6,164.4,400.3,158.3,395.6,154.5"/>
	<path class="st0" d="M569,190.2c0.1,8.9-1.4,17.8-4.3,26.1c-2.6,7.3-6.7,14.1-12,19.8c-5.3,5.5-11.7,9.8-18.9,12.6
		c-16.1,6-33.7,6-49.7,0c-7.1-2.7-13.6-7.1-18.9-12.6c-5.3-5.7-9.4-12.4-12-19.8c-5.7-16.9-5.7-35.3,0-52.3
		c2.6-7.4,6.8-14.1,12.2-19.8c5.3-5.5,11.9-9.8,19-12.6c15.9-6,33.4-6,49.3,0c7.2,2.8,13.7,7.1,19,12.7c5.3,5.7,9.5,12.4,12.2,19.8
		c3,8.4,4.5,17.1,4.3,26 M508.9,148.5c-10.1,0-18.2,3.7-24.1,11s-8.9,17.5-8.9,30.7c0,13.2,2.9,23.4,8.7,30.6
		c5.7,7.2,13.9,10.8,24.3,10.8c10.4,0,18.6-3.6,24.3-10.8c5.7-7.2,8.7-17.4,8.7-30.6c0-13.1-2.9-23.2-8.8-30.6
		C527.3,152.3,519.3,148.5,508.9,148.5"/>
	<path class="st0" d="M680,128.3c3.2-0.1,6.5,0.8,9.1,2.7c2.4,1.8,3.6,4.6,3.6,8.5c-0.2,3.4-0.9,6.9-1.9,10.2
		c-1.3,4.8-3,10.4-5.2,16.9c-2.2,6.5-4.7,13.4-7.3,20.8c-2.7,7.4-5.5,14.8-8.7,22.2c-3,7.3-6.1,14.4-9,21.1
		c-2.9,6.7-5.7,12.4-8.2,17.1c-1.9,1-4,1.9-6.1,2.4c-3,0.8-6.1,1.1-9.1,1.1c-8.2,0-13.7-2.3-16.3-6.9c-2.4-4.2-5.5-10.9-9.4-19.9
		s-7.9-19-11.9-29.7c-4.1-10.8-7.9-21.5-11.8-32.3c-3.9-10.8-6.8-20-9-27.8c1.7-2,3.8-3.6,6.1-4.7c2.5-1.3,5.3-1.9,8.1-1.9
		c3.9,0,7,0.9,9.3,2.7s4.1,4.9,5.4,9.3l14,43.6c1,3.2,2.2,6.8,3.6,10.7l4.1,11.8c1.4,4,2.7,7.7,4.1,11.4c1.4,3.7,2.4,6.7,3.3,9.3
		h1.3c5.7-15.9,11.3-32,16.5-48.1c5.2-16.2,9.8-32.1,13.7-47.8C671.6,129.1,675.8,128.2,680,128.3"/>
	<path class="st0" d="M754.2,127.3c15.8,0,28.3,3.4,37.6,10.2c9.3,6.9,14,17.6,14,32.4V229c0,3.9-0.9,6.9-2.7,9
		c-2.1,2.4-4.5,4.4-7.2,6c-5.3,2.9-11.1,5.1-17,6.6c-7.9,2-16,2.9-24.1,2.8c-16.4,0-29.2-3.2-38.4-9.6c-9.2-6.5-13.9-15.9-13.8-28.4
		c0-11.2,3.6-19.7,10.8-25.6c7.2-6,17.5-9.5,31.1-10.9l35.3-3.6v-5.5c0-7.4-2.4-12.8-7.2-16.3c-4.8-3.3-11.6-5.1-20.2-5.1
		c-6.6,0-13.2,0.9-19.5,2.8c-5.7,1.7-11.4,3.8-16.8,6.3c-1.7-1.4-3.1-3-4.3-4.9c-1.1-2-1.8-4.2-1.8-6.5c-0.1-2.5,0.6-5,2.2-7.1
		c1.8-2.1,4.1-3.8,6.7-4.8c5.1-2.5,10.7-4.3,16.3-5.2C741.3,127.7,747.6,127.2,754.2,127.3 M754.6,232.5c5.2,0.1,10.4-0.5,15.5-1.8
		c4.4-1.1,7.5-2.5,9.4-3.8v-32.2l-27.7,2.8c-7.8,0.8-13.6,2.6-17.5,5.2c-3.9,2.6-5.8,6.7-5.8,12c-0.2,5.1,2.2,10,6.4,13.1
		C739,231,745.6,232.6,754.6,232.5"/>
	<path class="st0" d="M856.6,227.8c3.6,2.5,8.6,3.8,14.9,3.8c3.1,0,6.2-0.4,9.1-1.3c2.9-0.7,5.7-1.8,8.4-3c1.3,1.5,2.3,2.9,3.1,4.6
		c0.9,1.9,1.5,4,1.4,6.1c0,4.4-2.2,8-6.7,10.9c-4.5,2.9-11.3,4.3-20.5,4.3c-12.7,0-22.8-2.8-30.3-8.5c-7.5-5.6-11.3-15-11.3-28.1
		V98.1c1.1-0.3,2.9-0.7,5.1-1.3c2.3-0.5,4.7-0.7,7.1-0.7c4.9,0,8.5,0.9,10.8,2.8c2.3,1.9,3.4,5,3.4,9.4v25.2h39.4
		c0.8,1.4,1.5,2.8,1.9,4.3c0.6,1.9,0.9,3.9,0.9,5.8c0,7.3-3.1,11-9.4,11h-32.8v60.4C851.2,221,853,225.3,856.6,227.8"/>
	<path class="st0" d="M939.3,203.7c2.4,9.6,7,16.8,13.8,21.4c6.9,4.7,15.6,7,26.2,7c6.7,0.1,13.3-1,19.5-3.3c5-1.8,9.8-4.2,14.2-7.1
		c4.7,2.7,7.1,6.5,7.1,11.4c0,3-1.3,5.8-3.3,8c-2.5,2.7-5.6,4.9-9,6.4c-4.3,2-8.8,3.3-13.5,4.2c-5.4,1-11.1,1.6-16.6,1.6
		c-9.1,0.1-18.1-1.3-26.7-4.1c-7.7-2.5-14.7-6.7-20.7-12.2c-5.8-5.6-10.4-12.4-13.4-20c-3.1-7.9-4.7-17.1-4.7-27.7
		c0-10.1,1.6-19.1,4.6-26.7c2.7-7.2,7-13.8,12.4-19.2c5.3-5.2,11.6-9.2,18.5-11.8c7.3-2.7,15-4.1,22.9-4.1c7.6-0.1,15.1,1.3,22.2,4
		c6.4,2.5,12.3,6.2,17.2,10.9c4.8,4.7,8.7,10.3,11.2,16.6c2.7,6.7,4,13.9,4,21.1c0,4.2-1,7.3-3,9.3c-2,1.9-5,3.2-8.9,4L939.3,203.7z
		 M970.7,147.8c-9.3,0-17,3.1-23.2,9.4c-6.2,6.3-9.4,15.2-9.8,26.9l62.4-8.9c-0.5-7.2-3.4-14.1-8.4-19.4
		C986.9,150.5,979.9,147.9,970.7,147.8"/>
	<path class="st0" d="M1109.1,148.8c-5.1,0-10.2,0.8-14.9,2.7c-4.5,1.7-8.6,4.5-11.8,8c-3.4,3.8-6.2,8.2-7.8,13.1
		c-2.1,5.7-3,11.8-2.9,17.9c0,13.4,3.4,23.6,10.4,30.6c6.9,7,16,10.5,27.1,10.5c5.6,0.1,11.2-0.7,16.5-2.6c4.2-1.5,8.2-3.6,11.9-6.1
		c2.1,1.3,3.9,2.9,5.3,4.8c1.4,2,2.1,4.4,2,6.9c0,5.2-3.4,9.6-10.3,13.2c-6.9,3.6-15.9,5.3-27,5.3c-8.7,0.1-17.2-1.1-25.5-3.8
		c-7.4-2.4-14.2-6.4-19.9-11.7c-5.7-5.5-10.2-12.2-13.2-19.6c-3.1-7.8-4.7-17-4.7-27.6c0-10.4,1.7-19.7,4.9-27.7
		c5.8-14.9,18.1-26.5,33.4-31.5c7.7-2.6,15.9-4,24.1-4c5.1,0,10.1,0.4,15.1,1.6c4.1,0.8,7.9,2.3,11.5,4.2c2.9,1.5,5.4,3.6,7.5,6.1
		c3.2,3.9,3.6,9.5,0.7,13.7c-1.1,1.9-2.8,3.3-4.7,4.4c-3.8-2.3-7.7-4.3-11.8-5.8C1120,149.6,1114.6,148.7,1109.1,148.8"/>
	<path class="st0" d="M1237.1,155.1c-5-4.3-11.6-6.5-19.6-6.5c-5.1-0.1-10.1,0.8-14.8,2.7c-4.2,1.7-8.1,3.8-11.8,6.5v91.4
		c-1.6,0.6-3.2,1-4.9,1.4c-2.3,0.4-4.6,0.6-7,0.6c-4.9,0-8.6-0.9-10.9-2.8c-2.4-1.9-3.6-5-3.6-9.4v-154c1.1-0.3,2.9-0.7,5.1-1.3
		c2.3-0.5,4.7-0.7,7.1-0.7c4.9,0,8.5,0.9,10.8,2.8c2.3,1.9,3.4,5,3.4,9.4v40.1c4.4-2.2,9-4.1,13.7-5.4c5.6-1.7,11.5-2.5,17.4-2.4
		c14.7,0,26.6,3.9,35.6,11.7c9.1,7.8,13.6,19.6,13.6,35.5v74.6c-1.7,0.6-3.3,1.1-5.1,1.4c-2.3,0.4-4.6,0.6-6.9,0.6
		c-5.1,0-8.8-0.9-11.1-2.8c-2.3-1.9-3.4-5-3.4-9.4v-63.5C1244.6,166.2,1242.1,159.4,1237.1,155.1"/>
	<path class="st0" d="M246.6,144c-21.5-21.5-55-25.1-80.5-8.7c2.8,2.1,5.5,4.3,8,6.8l12.3,12.3c0,0,0,0,0.1,0
		c1.5-0.7,2.9-1.5,4.5-2.1c4.4-1.5,9.1-2.2,13.7-2.1c10.7,0,18.4,3.6,26,11.2c15.7,15.7,15.7,41,0,56.6
		c-7.8,7.8-16.1,12.6-26.3,12.6c-10.7,0-20.8-4.2-28.3-11.7l-40.8-40.8c-5.2-5.2-13.6-5.2-18.7,0c-2.4,2.4-3.9,5.7-3.9,9.2
		c0,1.4,0.2,2.8,0.6,4.1v0.1c0.9,2.2,2.3,4.2,4.1,5.8l23,23l15,15c25.3,25.3,66.1,25.3,91.4,0C271.8,210.1,271.8,169.3,246.6,144"/>
	<path class="st0" d="M141.6,221.7l-0.1,0.1l2.8,2.8l-4.2,1.5c-20.8,7.5-43.8-3.2-51.3-24c-7.5-20.8,3.2-43.8,24-51.3
		c14.6-5.3,31-1.7,42,9.3l40.8,40.7c4.8,4.8,12.3,5.2,17.6,1l0.3-0.3c0.2-0.2,0.4-0.3,0.5-0.5c0.2-0.2,0.4-0.4,0.6-0.6l0.3-0.3
		l0.4-0.5c0.2-0.2,0.3-0.4,0.5-0.6l0.2-0.3c2.3-3.6,2.8-7.9,1.3-11.9c-0.6-1.6-1.6-3-2.7-4.3c-0.1-0.1-0.2-0.2-0.3-0.4l-1.5-1.5
		c-0.2-0.2-0.5-0.4-0.7-0.6l-23-23l-1.1-1.1l0,0l-14-13.7c-2.5-2.5-5.1-4.7-8-6.8c-28.9-20.8-69.3-14.2-90.1,14.8
		c-20.8,28.9-14.2,69.3,14.8,90.1c21.5,15.5,50.2,16.2,72.5,1.9c-2.8-2.1-5.5-4.3-8-6.8L141.6,221.7z"/>
</g>
</svg>
